<?xml version="1.0" encoding="UTF-8" standalone="no"?>
<!-- Created with Inkscape (http://www.inkscape.org/) -->

<svg
   width="50mm"
   height="50mm"
   viewBox="0 0 50 50"
   version="1.1"
   id="svg5"
   xml:space="preserve"
   inkscape:version="1.2.2 (b0a8486541, 2022-12-01)"
   sodipodi:docname="favicon.svg"
   xmlns:inkscape="http://www.inkscape.org/namespaces/inkscape"
   xmlns:sodipodi="http://sodipodi.sourceforge.net/DTD/sodipodi-0.dtd"
   xmlns="http://www.w3.org/2000/svg"
   xmlns:svg="http://www.w3.org/2000/svg"><sodipodi:namedview
     id="namedview7"
     pagecolor="#ffffff"
     bordercolor="#000000"
     borderopacity="0.25"
     inkscape:showpageshadow="2"
     inkscape:pageopacity="0.0"
     inkscape:pagecheckerboard="0"
     inkscape:deskcolor="#d1d1d1"
     inkscape:document-units="mm"
     showgrid="false"
     inkscape:zoom="3.0930415"
     inkscape:cx="81.31155"
     inkscape:cy="94.567111"
     inkscape:window-width="2560"
     inkscape:window-height="1011"
     inkscape:window-x="1920"
     inkscape:window-y="32"
     inkscape:window-maximized="1"
     inkscape:current-layer="layer1" /><defs
     id="defs2" /><g
     inkscape:label="Capa 1"
     inkscape:groupmode="layer"
     id="layer1"><rect
       style="fill:#f9f9f9;fill-opacity:0;stroke-width:0.0773707"
       id="rect946"
       width="50"
       height="50"
       x="-8.8817842e-16"
       y="4.4408921e-16"
       inkscape:export-filename="../../files/003.png"
       inkscape:export-xdpi="96"
       inkscape:export-ydpi="96" /><path
       style="fill:#008080;fill-opacity:1;stroke-width:0.0678431"
       d="M 7.3769531e-7,15.810481 C 1.0919137,15.664001 3.9524737,15.640431 4.4097936,15.774081 c 0.66581,0.19468 0.73557,0.3808 0.81254,2.16763 0.0433,1.00436 0.0988,1.55711 0.19562,1.94566 0.565032,2.26844 2.214592,4.13177 4.7924124,5.41343 1.015834,0.50507 2.004394,0.85645 3.493904,1.2419 1.22806,0.31779 1.27701,0.32478 2.272739,0.3244 1.18053,-4.7e-4 1.16175,0.003 6.37039,-1.18452 1.787284,-0.4075 3.353424,-0.7409 3.480314,-0.7409 0.2709,0 0.54052,0.12747 0.73966,0.34972 0.26837,0.29952 1.07047,1.65134 1.66778,2.81077 0.69621,1.35146 1.06173,2.20279 1.6287,3.79341 0.49152,1.37893 0.60462,1.61763 0.9243,1.95091 0.29459,0.30712 0.68601,0.46153 1.67468,0.66063 2.08619,0.4201 1.86854,0.74383 1.99551,2.12132 v 13.34275 c -5.5579,0 -31.4466523,0.0648 -34.45834226230468,0 z M 38.835873,34.407931 c -0.95231,-0.14632 -1.66064,-0.34777 -2.91305,-0.82844 -1.3261,-0.50897 -2.47792,-0.90366 -2.63708,-0.90366 -0.20615,0 -0.73201,-0.86213 -1.16023,-1.90217 -0.0993,-0.24112 -0.41941,-1.07953 -0.71139,-1.86312 -1.26246,-3.38798 -2.07021,-5.1803 -2.61065,-5.79273 -0.11905,-0.13491 -0.30013,-0.39099 -0.4024,-0.56908 -0.69664,-1.21307 -3.24798,-3.00112 -5.09728,-3.57231 -0.59358,-0.18334 -0.954724,-0.18534 -1.050804,-0.006 -0.12776,0.23872 0.13345,0.60319 0.858454,1.19783 0.92973,0.76257 1.58306,1.42453 1.58481,1.60575 9.9e-4,0.0817 0.0722,0.34905 0.15873,0.59411 0.18848,0.53389 0.15504,0.6695 -0.2241,0.90883 -1.28055,0.80838 -4.915724,1.47368 -8.111134,1.48447 -2.035279,0.007 -2.749739,-0.12554 -4.138419,-0.76702 -2.5695244,-1.18694 -4.6875844,-3.33996 -5.4086444,-5.49791 -0.19814,-0.59296 -0.21528,-0.71503 -0.21446,-1.52647 10e-4,-1.03151 0.17673,-1.86652 0.63752,-3.03018 0.95483,-2.41128 2.337,-3.93883 4.5785244,-5.06006 2.3706,-1.1858 5.478669,-1.64598 11.124263,-1.64705 1.31834,-2.6e-4 2.83504,0.0315 3.37045,0.0707 5.47197,0.39975 8.4529,1.80639 10.30927,4.86476 1.06626,1.75665 1.21577,2.59116 1.55315,8.66892 0.28917,5.20931 0.49484,6.35955 1.23516,6.90792 0.6019,0.44584 2.52674,-0.0408 5.04015,-1.27442 1.98692,-0.97517 2.92661,-1.64466 4.12149,-2.93643 0.91779,-0.99223 1.27226,-0.50758 1.2718,1.73893 -5.1e-4,2.03385 -0.41986,3.47255 -1.47455,5.05772 -1.31605,1.97798 -3.55139,3.43206 -6.11288,3.97641 -0.86316,0.18342 -2.70112,0.2351 -3.5767,0.10056 z m -13.74888,-17.7038 c 0.0478,-0.14634 0.0916,-0.51269 0.0975,-0.81411 0.0118,-0.60742 -0.0937,-0.90427 -0.39028,-1.0986 -0.41706,-0.27327 -1.26095,-0.14311 -1.66011,0.25604 -0.46527,0.46528 -0.13877,0.95681 1.15368,1.73681 0.48905,0.29514 0.68304,0.27569 0.79922,-0.0801 z"
       id="path948"
       sodipodi:nodetypes="ccsssscssssssscccccssssscscscscssscssccssssscssccccssscc" /></g></svg>
