<svg id="Capa_1" enable-background="new 0 0 506.441 506.441" height="512" viewBox="0 0 506.441 506.441" width="512" xmlns="http://www.w3.org/2000/svg"><g id="XMLID_419_"><path id="XMLID_1459_" d="m339.134 484.937c35.294-40.998 44.922-98.223 24.733-148.693-2.394-5.984-4.45-11.126-6.844-17.111l-56.537 33.51-35.31 58.338 26.373 47.73z" fill="#9bf"/><path id="XMLID_1480_" d="m243.963 432.193c23.028 23.027 44.272 44.271 74.249 74.248 12.573-12.578 16.131-15.939 20.922-21.504-19.914-19.914-62.357-62.357-73.958-73.957h-21.213z" fill="#4596e6"/><path id="XMLID_1478_" d="m187.318 149.427c-5.984-2.395-11.127-4.451-17.111-6.845-50.43-20.172-107.663-10.59-148.693 24.733l26.227 47.586 47.73 26.372 51.001-32.581z" fill="#cdf"/><path id="XMLID_1482_" d="m21.514 167.316c-5.466 4.706-7.976 7.398-21.502 20.924 19.996 19.996 62.599 62.6 74.246 74.247h21.213v-21.213c-19.915-19.914-62.358-62.358-73.957-73.958z" fill="#6cf"/><path id="XMLID_1562_" d="m500.624 5.825c-7.606-.46-63.76-16.437-135.582 6.581-38.789 12.431-74.663 33.96-104.19 63.487-3.469 3.469-119.487 119.487-122.954 122.954l30.913 53.939 43.333 20.307 149.543-128.331z" fill="#e6f2ff"/><path id="XMLID_1563_" d="m500.624 5.825-138.938 138.937-128.33 149.544 20.935 42.705 53.312 31.541c3.47-3.469 119.487-119.486 122.954-122.953 29.527-29.528 51.057-65.402 63.487-104.191 22.973-71.69 7.036-128.028 6.58-135.583z" fill="#cdf"/><path id="XMLID_1564_" d="m148.504 336.734c-8.135 8.134-138.218 138.217-146.353 146.352 3.709 3.71 6.896 6.896 10.605 10.605l78.48-67.872 67.872-78.479 2.362-10.606z" fill="#ffda2d"/><path id="XMLID_1565_" d="m12.757 493.691c3.71 3.711 6.897 6.898 10.608 10.607 8.134-8.134 138.219-138.218 146.352-146.352l.001-9.629-10.608-.979c-8.136 8.136-138.219 138.219-146.353 146.353z" fill="#fdbf00"/><path id="XMLID_1566_" d="m114.651 460.585c7.419 7.42 13.794 13.795 21.213 21.213 8.879-8.879 69.496-69.496 78.852-78.852l-2.573-17.254-18.64-3.959c-8.878 8.88-69.495 69.497-78.852 78.852z" fill="#fdbf00"/><path id="XMLID_1567_" d="m50.901 344.335c7.419 7.42 13.794 13.795 21.213 21.213 5.932-5.931 46.353-46.352 52.603-52.602l-3.12-17.379-18.093-3.834c-5.932 5.932-46.352 46.352-52.603 52.602z" fill="#ffda2d"/><path id="XMLID_449_" d="m275.783 145.814c-19.846 19.847-22.737 50.045-9.264 72.904-6.605 6.605-47.748 47.748-54.376 54.375l-2.458 13.063 13.064-2.458 77.736-63.639 60.148-74.246c-23.446-23.446-61.399-23.45-84.85.001z" fill="#6cf"/><path id="XMLID_459_" d="m360.635 145.814c-7.652 7.652-130.232 130.232-137.885 137.885v10.607h10.606c6.605-6.604 47.748-47.748 54.376-54.375 23.126 13.631 53.272 10.368 72.903-9.264 11.725-11.725 17.587-27.075 17.588-42.427 0-26.094-16.605-40.913-17.588-42.426z" fill="#4596e6"/><path id="XMLID_458_" d="m296.996 167.028c-11.695 11.696-11.696 30.728-.001 42.426l28.821-13.606 13.605-28.82c-11.723-11.725-30.698-11.726-42.425 0z" fill="#4596e6"/><path id="XMLID_1481_" d="m339.422 167.027c-5.133 5.133-37.26 37.26-42.427 42.427l.001.001c11.695 11.694 30.729 11.697 42.427 0v-.001c11.724-11.725 11.725-30.701-.001-42.427z" fill="#3e6dcc"/><path id="XMLID_1569_" d="m222.75 283.699c-10.266-10.266-74.52-74.518-84.852-84.852-5.133 5.133-37.26 37.26-42.427 42.427l35.197 49.655 49.654 35.196 30.534-11.893z" fill="#ff637b"/><path id="XMLID_1571_" d="m159.11 347.338 21.212-5.302v-15.911c-10.266-10.266-74.518-74.518-84.852-84.852-7.419 7.419-13.794 13.794-21.213 21.214 9.753 9.753 19.5 19.499 29.246 29.246l.001-.001 21.213 21.213-.001.001c8.319 8.318 15.468 15.467 23.787 23.787l.001-.001c3.71 3.711 6.896 6.897 10.606 10.606z" fill="#e63950"/><path id="XMLID_1568_" d="m180.322 326.125 36.091 48.763 48.763 36.092c5.134-5.134 37.26-37.26 42.427-42.428-10.266-10.266-74.52-74.52-84.853-84.853-5.134 5.133-37.26 37.259-42.428 42.426z" fill="#e63950"/><path id="XMLID_1570_" d="m159.11 347.338 10.607 10.607-.001.001c8.319 8.318 15.468 15.467 23.787 23.787l.001-.001c7.419 7.419 13.794 13.794 21.213 21.213l-.001.001c9.754 9.753 19.5 19.499 29.246 29.246l21.213-21.213c-10.266-10.267-74.52-74.521-84.854-84.854-7.417 7.419-13.792 13.794-21.211 21.213z" fill="#cd0000"/></g></svg>