<svg id="Capa_1" enable-background="new 0 0 510 510" height="512" viewBox="0 0 510 510" width="512" xmlns="http://www.w3.org/2000/svg"><g><g id="XMLID_2207_"><path id="XMLID_2258_" d="m180 450c5.2 10.5 9.8 19.5 15 30l30 15 30-15 15-15-15-15-37.5-15z" fill="#474f54"/><path id="XMLID_2176_" d="m330 450-37.5-15-37.5 15v30l30 15 30-15c5.2-10.5 9.8-19.5 15-30z" fill="#32393f"/><path id="XMLID_2309_" d="m90 161.3c-.9 39.6 12.5 78.2 37.7 108.7 11.9 14.4 21.2 30.6 27.5 47.7 11.3 30.7 9.6 55.2 9.8 57.3l45 15 30-15 15-211.6 10-73.1-10-90.3c-89.2 0-163 72-165 161.3z" fill="#ffda2d"/><g fill="#fdbf00"><path id="XMLID_2305_" d="m345 371.9c0-37 12.9-72.8 36.4-100.8 24.9-29.7 38.6-67.4 38.6-106.1 0-90.3-72.6-163.9-163-165-.3 0-.6 0-1 0-.3 0-.6 0-1 0s0 0 0 0v163.4l15 211.6 30 15 45-15c0-.1 0-3.3 0-3.1z"/><path id="XMLID_2303_" d="m437.7 60.4c4.6 9.5 8.5 17.6 13 27 12.9-6.2 27.7-13.3 40.5-19.5-4.6-9.5-8.5-17.6-13-27-12.8 6.2-27.6 13.3-40.5 19.5z"/><path id="XMLID_2284_" d="m59.3 87.4c-13.5-6.5-27-13-40.5-19.5 4.6-9.5 8.5-17.6 13-27l40.5 19.5c-4.5 9.4-8.5 17.5-13 27z"/><path id="XMLID_2_" d="m478.2 289.2c4.6-9.5 8.5-17.6 13-27-12.9-6.2-27.7-13.3-40.5-19.5-4.6 9.5-8.5 17.6-13 27 12.9 6.1 27.7 13.3 40.5 19.5z"/><path id="XMLID_1_" d="m72.3 269.6c-13.5 6.5-27 13-40.5 19.5-4.6-9.5-8.5-17.6-13-27l40.5-19.5c4.5 9.5 8.5 17.6 13 27z"/><path id="XMLID_2379_" d="m255 163.4c-7.9-8.3-18.4-13.4-30-13.4-25.5 0-45 24.4-45 52.5 0 28.2 19.5 52.5 45 52.5 5.2 0 10.3-1.1 15-3v123l7.5 15 7.5-15 6.6-105.8zm-30 61.6c-9.1 0-15-12.2-15-22.5 0-10.4 6-22.5 15-22.5 9.1 0 15 12.2 15 22.5 0 10.4-6 22.5-15 22.5z"/></g><path id="XMLID_2369_" d="m270 252c4.7 2 9.8 3 15 3 25.5 0 45-24.4 45-52.5 0-28.2-19.5-52.5-45-52.5-11.6 0-22.1 5.1-30 13.4v211.6l7.5 15 7.5-15c0-39.1 0-83.9 0-123zm15-72c9.1 0 15 12.2 15 22.5 0 10.4-6 22.5-15 22.5-9.1 0-15-12.2-15-22.5 0-10.4 6-22.5 15-22.5z" fill="#ff9100"/><path id="XMLID_2175_" d="m195 480c5.2 10.5 9.8 19.5 15 30h45l15-15-15-15c-7.3 0-52.7 0-60 0z" fill="#32393f"/><path id="XMLID_2174_" d="m315 480c-7.3 0-52.7 0-60 0v30h45c5.2-10.5 9.8-19.5 15-30z" fill="#23292d"/><path id="XMLID_2294_" d="m135 375v75h120l15-37.5-15-37.5c-14.5 0-105.4 0-120 0z" fill="#575f64"/><path id="XMLID_2292_" d="m375 375c-14.5 0-105.4 0-120 0v75h120c0-20.2 0-63.2 0-75z" fill="#474f54"/></g><g fill="#fdbf00"><path d="m0 150h45.5v29.6h-45.5z"/><path d="m464.7 150h45.5v29.6h-45.5z"/></g></g></svg>