<svg id="Capa_1" enable-background="new 0 0 510 510" height="512" viewBox="0 0 510 510" width="512" xmlns="http://www.w3.org/2000/svg"><g id="XMLID_799_"><path id="XMLID_1103_" d="m102.7 132.6c-77.9 48.9-99.4 118.7-101.6 122.4 2 3.4 24.1 73.8 101.6 122.4 44.4 27.9 97.1 42.6 152.3 42.6l10-165-10-165c-55.2 0-107.9 14.7-152.3 42.6z" fill="#575f64"/><path id="XMLID_1102_" d="m508.9 255c-2-3.4-24.1-73.8-101.6-122.4-44.4-27.9-97.1-42.6-152.3-42.6v330c55.2 0 107.9-14.7 152.3-42.6 77.9-48.9 99.4-118.7 101.6-122.4z" fill="#474f54"/><path id="XMLID_863_" d="m255 300 10-45-10-45-15-89.6c-92 5.1-171.3 56.6-206.3 134.6 35 78 114.3 129.5 206.3 134.6z" fill="#e6f2ff"/><path id="XMLID_860_" d="m476.3 255c-35-78-114.3-129.5-206.3-134.6l-15 89.6v90l15 89.6c92-5.1 171.3-56.6 206.3-134.6z" fill="#cdf"/><path id="XMLID_1060_" d="m150 255c0 52.8 39.2 96.6 90 103.9l15-103.9-15-103.9c-50.8 7.3-90 51.1-90 103.9z" fill="#ff637b"/><path id="XMLID_1059_" d="m360 255c0-52.8-39.2-96.6-90-103.9l-15 103.9 15 103.9c50.8-7.3 90-51.1 90-103.9z" fill="#e63950"/><path id="XMLID_1048_" d="m180 255c0 36.2 25.8 66.5 59.9 73.5l21.6-73.5-21.5-73.5c-34.2 7-60 37.3-60 73.5z" fill="#cdf"/><path id="XMLID_1046_" d="m330 255c0-36.2-25.8-66.5-59.9-73.5l-15.1 73.5 15 73.5c34.2-7 60-37.3 60-73.5z" fill="#9bf"/><path id="XMLID_1043_" d="m240 0v45h15l11.8-22.5-11.8-22.5c-5.2 0-9.8 0-15 0z" fill="#e6f2ff"/><path id="XMLID_1042_" d="m255 0h15v45h-15z" fill="#cdf"/><path id="XMLID_1032_" d="m139.1 23h30v45h-30z" fill="#e6f2ff" transform="matrix(.901 -.434 .434 .901 -4.488 71.382)"/><path id="XMLID_1031_" d="m131.6 449.5h45v30h-45z" fill="#e6f2ff" transform="matrix(.434 -.901 .901 .434 -331.234 401.829)"/><path id="XMLID_1036_" d="m240 465v45h15l10-22.5-10-22.5z" fill="#e6f2ff"/><path id="XMLID_1030_" d="m332.6 59.3c9.5 4.6 17.6 8.5 27 13 6.2-12.9 13.3-27.7 19.5-40.5-9.5-4.6-17.6-8.5-27-13-6.2 12.8-13.3 27.6-19.5 40.5z" fill="#cdf"/><path id="XMLID_2_" d="m255 465h15v45h-15z" fill="#cdf"/><path id="XMLID_1_" d="m352.1 491.3c9.5-4.6 17.6-8.5 27-13-6.2-12.9-13.3-27.7-19.5-40.5-9.5 4.6-17.6 8.5-27 13 6.2 12.8 13.3 27.6 19.5 40.5z" fill="#cdf"/><g fill="#e63950"><path id="XMLID_1010_" d="m261.5 165-6.5-45v90z"/><path id="XMLID_1047_" d="m240 212.6c.3.2 7.9 4.9 7.4 4.6 2.7-2.5 4.9-4.7 7.6-7.2l6.5-45-6.5-45c-4.9 0-9.9.1-15 .4z"/><path id="XMLID_1066_" d="m255 300v90l7.5-45z"/><path id="XMLID_1107_" d="m247.4 292.3c-.1.1-7.7 5.3-7.4 5.1v92.2c5.1.3 10.1.4 15 .4l7.5-45-7.5-45c-2.7-2.7-4.9-5-7.6-7.7z"/></g><path id="XMLID_1009_" d="m270 212.6c0-11.3 0-81 0-92.2-5-.3-10-.4-15-.4v90l7.6 7.2z" fill="#cd0000"/><path id="XMLID_1100_" d="m270 297.4-7.4-5.1-7.6 7.7v90c5 0 10-.1 15-.4 0-11.2 0-80.9 0-92.2z" fill="#cd0000"/><path id="XMLID_839_" d="m292.5 255 4.9 15h107.6c0-10.5 0-19.5 0-30-13 0-94.5 0-107.6 0z" fill="#cd0000"/><path id="XMLID_1116_" d="m212.6 240c-13 0-94.5 0-107.6 0v30h107.6l4.9-15z" fill="#e63950"/><path id="XMLID_1029_" d="m223.2 286.8c8.1 8.1 19.4 13.2 31.8 13.2l6.5-45-6.5-45c-40.1 0-60 48.6-31.8 76.8z" fill="#ff637b"/><path id="XMLID_1013_" d="m300 255c0-24.8-20.2-45-45-45v90c24.8 0 45-20.2 45-45z" fill="#e63950"/><path id="XMLID_804_" d="m240 255c0 8.3 6.7 15 15 15l6.5-15-6.5-15c-8.3 0-15 6.7-15 15z" fill="#cdf"/><path id="XMLID_855_" d="m270 255c0-8.3-6.7-15-15-15v30c8.3 0 15-6.7 15-15z" fill="#9bf"/></g></svg>